<?xml version="1.0" standalone="no"?>
<!DOCTYPE svg PUBLIC "-//W3C//DTD SVG 20010904//EN"
 "http://www.w3.org/TR/2001/REC-SVG-20010904/DTD/svg10.dtd">
<svg version="1.0" xmlns="http://www.w3.org/2000/svg"
 width="680.000000pt" height="757.000000pt" viewBox="0 0 680.000000 757.000000"
 preserveAspectRatio="xMidYMid meet">

<g transform="translate(0.000000,757.000000) scale(0.100000,-0.100000)"
fill="#535353" stroke="none">
<path d="M1055 6241 c-32 -10 -51 -24 -64 -48 -8 -16 -11 -300 -11 -1063 l0
-1042 48 35 c153 113 415 190 633 186 139 -2 303 -36 417 -85 l52 -23 0 29 c0
64 -40 60 535 60 468 0 524 -2 529 -16 11 -29 7 -189 -6 -202 -9 -9 -116 -12
-420 -12 l-408 0 73 -72 c82 -83 158 -170 171 -199 9 -18 25 -19 462 -19 524
0 474 13 474 -118 0 -64 -4 -82 -18 -95 -17 -15 -60 -17 -416 -17 -375 0 -396
-1 -388 -17 10 -20 38 -159 47 -235 l6 -48 373 0 c276 0 375 -3 384 -12 16
-16 16 -180 0 -196 -9 -9 -110 -12 -393 -12 l-381 0 -11 -57 c-35 -179 -83
-287 -202 -448 -45 -62 -186 -205 -202 -205 -4 0 -6 -7 -3 -15 5 -13 122 -15
964 -15 657 0 967 3 988 11 67 23 62 -141 62 1968 0 1337 -3 1917 -11 1934
-25 55 80 52 -1659 53 -883 1 -1614 -1 -1625 -5z m1995 -441 c19 -19 20 -33
20 -428 0 -353 -2 -411 -16 -430 l-15 -22 -374 0 -374 0 -15 22 c-14 19 -16
77 -16 430 0 395 1 409 20 428 19 19 33 20 385 20 352 0 366 -1 385 -20z"/>
<path d="M4580 4340 l0 -1240 123 0 c82 0 127 -4 135 -12 7 -7 12 -45 12 -98
0 -118 -2 -120 -153 -120 l-117 0 0 -145 0 -145 113 0 c153 0 157 -3 157 -119
0 -54 -4 -91 -12 -99 -8 -8 -52 -12 -133 -12 l-122 0 -16 -58 c-18 -65 -59
-128 -110 -166 l-34 -26 -976 -2 -976 -3 34 -95 c18 -52 57 -161 87 -242 l53
-148 1468 0 c1582 0 1509 -2 1537 49 15 28 14 3845 -1 3873 -25 46 -46 48
-574 48 l-495 0 0 -1240z"/>
<path d="M1480 4085 c-71 -15 -124 -32 -180 -57 -24 -11 -55 -24 -68 -29 -13
-5 -57 -32 -97 -59 -212 -147 -354 -384 -386 -644 -46 -373 152 -744 486 -910
105 -52 196 -83 274 -93 74 -10 214 -10 277 0 l52 7 42 -115 c42 -113 43 -116
69 -110 47 10 205 72 208 82 2 5 -15 58 -37 118 -36 99 -38 111 -23 120 52 32
174 130 214 171 118 126 210 307 236 469 16 99 9 294 -15 381 -57 214 -190
402 -369 524 -112 76 -173 103 -318 140 -66 17 -295 20 -365 5z m305 -180 c84
-16 194 -62 267 -111 43 -30 85 -54 93 -54 8 0 15 -6 15 -14 0 -8 21 -38 46
-68 57 -66 137 -231 155 -318 15 -72 18 -214 6 -274 -28 -146 -108 -295 -209
-392 -77 -73 -107 -95 -195 -138 -256 -126 -581 -79 -796 115 -182 164 -272
416 -233 649 28 167 91 288 215 410 119 117 230 170 421 204 29 5 171 -1 215
-9z"/>
<path d="M1531 3694 c-91 -24 -207 -93 -254 -151 -10 -13 -25 -30 -33 -38 -24
-23 -91 -175 -102 -230 -14 -65 -6 -184 15 -237 17 -44 106 -193 127 -213 143
-135 340 -182 523 -124 101 32 138 56 226 147 72 75 76 72 -91 72 -148 0 -150
0 -166 25 -12 18 -16 48 -16 115 0 87 9 126 34 142 6 4 93 8 194 8 207 0 192
-9 167 95 -15 64 -70 177 -107 221 -54 63 -56 64 -150 64 -81 0 -91 2 -113 25
-15 15 -25 36 -25 54 0 29 0 29 -72 35 -88 6 -92 6 -157 -10z"/>
<path d="M2170 2023 c-36 -14 -108 -40 -160 -59 -61 -21 -94 -37 -93 -46 2 -7
68 -193 148 -413 120 -328 151 -406 177 -432 95 -99 272 -52 309 82 15 55 9
81 -64 283 -36 97 -100 275 -143 394 -56 154 -83 218 -94 217 -8 0 -44 -12
-80 -26z"/>
</g>
</svg>
