<?xml version="1.0" standalone="no"?>
<!DOCTYPE svg PUBLIC "-//W3C//DTD SVG 20010904//EN"
 "http://www.w3.org/TR/2001/REC-SVG-20010904/DTD/svg10.dtd">
<svg version="1.0" xmlns="http://www.w3.org/2000/svg"
 width="1715.000000pt" height="1727.000000pt" viewBox="0 0 1715.000000 1727.000000"
 preserveAspectRatio="xMidYMid meet">

<g transform="translate(0.000000,1727.000000) scale(0.100000,-0.100000)"
fill="#1D4B85" stroke="none">
<path d="M8125 16505 c-508 -42 -812 -84 -1182 -166 -1350 -297 -2525 -890
-3571 -1803 -164 -143 -536 -515 -681 -681 -725 -830 -1244 -1733 -1586 -2760
-172 -516 -311 -1136 -359 -1605 -61 -587 -38 -1522 50 -2100 109 -710 345
-1489 648 -2140 518 -1112 1362 -2156 2363 -2927 722 -555 1581 -996 2473
-1271 328 -101 593 -168 905 -231 384 -77 504 -87 1155 -96 491 -7 1052 6
1279 30 433 47 1120 215 1646 405 1341 483 2505 1298 3418 2393 1597 1914
2192 4514 1591 6947 -304 1229 -887 2351 -1719 3305 -955 1096 -2263 1945
-3645 2366 -488 149 -846 222 -1390 284 -684 77 -951 87 -1395 50z m1005 -336
c413 -15 564 -31 903 -100 1642 -330 3047 -1117 4170 -2334 1101 -1193 1790
-2741 1951 -4380 54 -547 45 -1169 -25 -1715 -179 -1410 -776 -2773 -1702
-3882 -1092 -1311 -2593 -2211 -4287 -2572 -542 -116 -993 -155 -1645 -142
-788 14 -1224 68 -1780 217 -577 155 -1044 335 -1580 608 -1396 711 -2511
1809 -3248 3198 -754 1421 -1034 3032 -806 4628 181 1268 677 2459 1455 3495
184 245 325 402 648 725 507 506 858 799 1302 1083 767 492 1584 828 2492
1027 400 87 764 144 997 155 188 8 779 3 1155 -11z"/>
<path d="M5450 12700 c-912 -7 -1170 -15 -1292 -41 -94 -20 -186 -76 -279
-171 -71 -71 -94 -129 -109 -265 -16 -153 -28 -993 -35 -2408 -6 -1344 2
-1926 29 -2077 38 -208 217 -384 443 -434 95 -21 277 -14 333 14 42 20 59 70
44 129 -14 55 -46 72 -175 94 -213 36 -261 60 -366 181 l-63 73 0 2205 0 2205
124 124 123 123 3269 -5 c3162 -5 3989 -13 4112 -38 109 -22 169 -97 200 -251
15 -73 16 -148 12 -633 -8 -850 -5 -1161 9 -1239 22 -126 57 -166 144 -166 52
0 84 21 105 69 35 77 24 1860 -12 2061 -18 99 -35 138 -103 232 -65 90 -109
121 -212 150 -94 26 -314 46 -631 58 -347 13 -4383 20 -5670 10z"/>
<path d="M10195 9990 c-427 -8 -608 -22 -671 -50 -56 -24 -174 -138 -207 -198
-65 -120 -73 -234 -103 -1498 l-7 -282 -181 -6 c-100 -3 -372 -11 -606 -17
-234 -6 -535 -14 -670 -18 -135 -5 -248 -5 -251 -2 -4 3 -14 50 -23 104 -23
137 -59 244 -127 376 -77 151 -93 221 -94 421 0 150 1 157 28 213 20 41 71
101 176 211 81 84 155 169 164 188 34 72 16 112 -70 150 l-45 20 -51 -26 c-29
-14 -99 -69 -157 -122 -138 -127 -214 -190 -253 -211 -25 -13 -60 -17 -162
-18 -104 0 -137 -4 -166 -18 -113 -56 -980 -894 -2113 -2040 l-608 -617 -55
-172 c-107 -342 -128 -463 -90 -534 18 -35 77 -64 128 -64 105 0 417 98 524
165 165 103 509 432 1755 1679 415 416 759 756 765 756 18 0 116 -147 136
-204 23 -68 25 -175 4 -216 -18 -35 -36 -44 -323 -174 -117 -53 -246 -117
-289 -142 -212 -125 -307 -247 -323 -412 -5 -46 -14 -80 -23 -90 -11 -11 -47
-18 -119 -23 -198 -15 -309 -83 -379 -234 -54 -114 -69 -250 -49 -427 19 -161
52 -223 174 -326 l74 -62 1655 0 1655 0 6 -72 c3 -40 8 -275 11 -523 3 -247 8
-535 12 -638 l6 -188 151 -140 151 -139 1655 4 c1672 3 1775 6 1895 41 82 23
166 83 196 141 91 169 103 535 96 2984 -6 2067 -8 2114 -91 2243 -87 137 -185
173 -536 197 -186 13 -2064 20 -2575 10z m2587 -309 c103 -7 207 -15 230 -19
40 -7 43 -10 50 -49 54 -320 56 -4395 2 -4850 -5 -44 -10 -52 -30 -57 -122
-31 -1065 -50 -2074 -42 -912 7 -1339 21 -1380 46 -43 26 -52 472 -52 2470 0
1944 9 2431 48 2470 14 14 221 30 509 40 375 12 2468 5 2697 -9z m-5873 -746
c37 -19 81 -71 81 -96 0 -66 -108 -193 -577 -674 -776 -796 -1640 -1643 -1888
-1850 -142 -118 -268 -195 -324 -195 -23 0 -24 2 -18 61 4 49 13 72 41 113
231 333 2541 2656 2642 2656 8 0 28 -7 43 -15z m1401 -1545 l0 -270 -395 0
-395 0 0 270 0 270 395 0 395 0 0 -270z m920 0 l0 -270 -310 0 -310 0 0 270 0
270 310 0 310 0 0 -270z m-2009 138 c4 -40 8 -149 9 -242 l0 -169 -322 6
c-283 5 -409 15 -426 32 -3 3 3 23 13 45 34 76 178 193 336 271 108 55 362
149 373 139 4 -4 12 -41 17 -82z m2009 -938 l0 -240 -1634 0 -1633 0 -6 78
c-25 303 -24 311 47 342 112 50 315 56 2014 58 l1212 2 0 -240z"/>
<path d="M10282 8810 c-96 -14 -129 -27 -152 -64 -24 -40 -25 -67 -4 -107 20
-39 62 -56 171 -69 152 -17 995 -32 1568 -28 500 4 554 6 593 23 28 11 47 27
53 43 11 27 2 171 -11 192 -6 10 -245 13 -1081 16 -600 1 -1102 -1 -1137 -6z"/>
<path d="M10218 7931 c-51 -5 -73 -11 -89 -28 -46 -45 -15 -164 51 -198 57
-30 348 -39 1215 -39 881 -1 1048 6 1087 40 29 27 40 81 31 154 l-8 65 -55 7
c-68 8 -2140 7 -2232 -1z"/>
<path d="M10390 7070 c-102 -4 -197 -12 -212 -18 -38 -16 -58 -52 -65 -115 -7
-67 10 -88 88 -111 114 -34 268 -40 1049 -39 771 0 1169 12 1220 36 35 17 52
74 44 152 -4 35 -9 68 -13 73 -4 7 -227 13 -671 16 -366 4 -798 8 -960 10
-162 2 -378 0 -480 -4z"/>
<path d="M10365 6190 c-110 -4 -208 -8 -218 -9 -25 -1 -50 -66 -44 -108 8 -46
43 -101 77 -118 49 -25 329 -36 1105 -42 823 -6 1109 2 1173 34 54 26 65 57
55 151 l-8 77 -51 6 c-79 10 -1863 17 -2089 9z"/>
</g>
</svg>
