<?xml version="1.0" standalone="no"?>
<!DOCTYPE svg PUBLIC "-//W3C//DTD SVG 20010904//EN"
 "http://www.w3.org/TR/2001/REC-SVG-20010904/DTD/svg10.dtd">
<svg version="1.0" xmlns="http://www.w3.org/2000/svg"
 width="1849.000000pt" height="1907.000000pt" viewBox="0 0 1849.000000 1907.000000"
 preserveAspectRatio="xMidYMid meet">

<g transform="translate(0.000000,1907.000000) scale(0.100000,-0.100000)"
fill="#1D4B85" stroke="none">
<path d="M8825 17279 c-646 -48 -1007 -102 -1482 -219 -1670 -413 -3149 -1346
-4259 -2685 -922 -1112 -1529 -2533 -1714 -4010 -53 -427 -74 -992 -51 -1395
80 -1402 495 -2700 1238 -3870 600 -944 1441 -1784 2384 -2380 813 -514 1651
-870 2483 -1055 1098 -244 2384 -253 3459 -24 1521 323 2842 1059 3972 2210
979 999 1603 2081 1969 3416 98 360 191 809 220 1063 64 562 66 1630 5 2095
-54 413 -225 1119 -378 1568 -234 682 -651 1461 -1117 2087 -1307 1754 -3225
2868 -5414 3145 -459 58 -979 79 -1315 54z m660 -339 c676 -23 898 -47 1340
-146 1205 -270 2227 -761 3142 -1510 382 -313 819 -746 1124 -1114 565 -681
972 -1415 1293 -2331 302 -864 386 -1409 386 -2509 0 -618 -37 -1027 -135
-1518 -188 -935 -635 -1961 -1202 -2759 -265 -372 -467 -608 -863 -1004 -451
-451 -746 -704 -1135 -971 -768 -527 -1827 -963 -2800 -1152 -457 -88 -661
-107 -1243 -113 -958 -11 -1476 47 -2178 242 -1044 291 -1990 775 -2779 1422
-1553 1274 -2522 3002 -2764 4928 -35 279 -44 524 -38 1030 11 848 52 1218
202 1799 139 541 320 1020 586 1546 606 1200 1502 2208 2629 2955 506 336 952
558 1560 777 596 215 1428 404 1880 427 229 12 655 12 995 1z"/>
<path d="M8940 15166 c-82 -17 -146 -53 -210 -115 -78 -76 -93 -125 -89 -274
5 -147 21 -175 166 -295 l105 -87 -6 -170 c-3 -93 -9 -269 -12 -391 l-7 -221
-246 -52 c-135 -29 -305 -67 -376 -85 -97 -24 -137 -30 -157 -24 -36 12 -80
81 -188 291 -100 194 -150 312 -150 353 0 16 16 54 35 86 51 82 71 172 57 251
-27 142 -136 280 -259 327 -91 35 -184 32 -266 -8 -112 -56 -233 -201 -258
-310 -19 -84 32 -210 125 -310 68 -72 116 -103 199 -126 103 -30 158 -104 313
-419 63 -128 79 -168 82 -215 4 -56 3 -59 -31 -88 -20 -16 -77 -54 -127 -84
-51 -30 -166 -110 -256 -177 -90 -68 -168 -123 -173 -123 -16 0 -466 466 -506
525 l-40 57 -5 142 c-7 172 -19 203 -119 300 -99 95 -159 121 -281 121 -82 0
-103 -4 -151 -26 -79 -37 -133 -90 -171 -166 -96 -195 -3 -473 180 -538 27
-10 100 -20 173 -25 179 -11 181 -12 455 -295 122 -126 234 -244 249 -262 l26
-32 -105 -140 c-131 -173 -213 -299 -273 -413 -40 -78 -48 -88 -66 -82 -107
34 -608 276 -705 340 -65 44 -74 53 -87 97 -20 67 -47 107 -109 164 -70 64
-140 101 -228 119 -91 19 -142 12 -202 -27 -149 -99 -237 -279 -207 -426 35
-176 178 -305 357 -320 81 -7 153 10 247 57 123 63 137 61 464 -80 246 -105
331 -149 356 -183 19 -24 20 -33 10 -84 -10 -58 -118 -589 -128 -629 -5 -21
-12 -21 -212 -28 -115 -4 -285 -7 -379 -8 -199 0 -211 4 -275 85 -72 91 -153
143 -260 167 -169 38 -339 -50 -422 -220 -29 -59 -32 -73 -32 -160 0 -88 3
-101 33 -162 41 -84 128 -167 209 -199 45 -18 78 -23 143 -23 132 0 197 36
311 170 l71 84 392 0 c390 0 538 8 612 32 35 12 41 19 57 68 12 36 22 107 27
205 13 227 42 377 110 570 131 369 346 703 631 980 368 357 799 571 1310 652
159 25 527 25 689 -1 345 -54 673 -179 956 -365 167 -109 260 -185 404 -330
400 -402 647 -920 680 -1421 19 -283 34 -340 92 -359 68 -22 235 -31 614 -31
l391 0 33 -42 c19 -23 63 -73 98 -110 84 -89 122 -102 277 -96 103 4 119 7
179 37 110 54 185 173 194 308 11 176 -101 351 -267 413 -153 58 -277 18 -441
-141 -120 -117 -102 -113 -527 -106 -196 4 -357 8 -358 9 -2 2 -10 64 -19 138
-19 157 -65 388 -100 510 -14 46 -24 85 -23 86 6 6 524 241 587 266 99 40 188
47 278 22 43 -12 99 -19 157 -19 80 0 97 4 157 32 89 42 151 101 191 182 29
59 32 74 32 156 0 81 -3 97 -32 158 -40 83 -128 178 -197 212 -220 107 -470
-13 -541 -260 -54 -187 -51 -185 -471 -380 -136 -63 -248 -114 -249 -112 -88
126 -415 618 -415 624 0 19 527 531 575 559 46 26 58 29 195 34 100 5 157 12
183 23 53 23 132 109 170 186 30 61 32 72 32 171 0 99 -2 109 -33 172 -116
236 -447 300 -615 119 -86 -92 -131 -225 -121 -351 6 -65 4 -82 -14 -117 -34
-67 -163 -204 -414 -445 l-158 -150 -127 95 c-166 123 -306 214 -420 272 -50
26 -101 57 -114 71 l-22 23 22 68 c41 123 138 367 185 465 72 148 103 183 202
228 147 68 203 142 219 290 8 76 -8 186 -35 247 -27 62 -102 137 -163 164 -76
33 -220 38 -300 10 -111 -39 -187 -112 -227 -220 -46 -120 -35 -239 36 -377
68 -131 65 -150 -72 -467 -104 -241 -132 -272 -239 -261 -171 17 -575 89 -599
108 -18 13 -31 171 -41 486 -3 107 -8 211 -11 231 -5 35 0 42 101 155 140 156
165 199 165 284 -1 81 -14 139 -46 205 -76 151 -252 237 -414 201z m150 -271
c80 -41 77 -176 -4 -226 -56 -34 -119 -19 -170 41 -47 57 -31 151 33 185 34
19 105 19 141 0z m1447 -342 c9 -21 18 -58 21 -83 3 -39 0 -51 -24 -79 -31
-37 -78 -61 -120 -61 -66 0 -124 72 -124 153 0 79 39 104 168 106 l63 1 16
-37z m-2986 -40 c44 -37 72 -103 63 -148 -8 -44 -52 -90 -95 -99 -67 -13 -179
64 -179 124 0 55 96 150 151 150 15 0 42 -12 60 -27z m-1176 -756 c19 -19 37
-46 41 -60 22 -88 -59 -187 -153 -187 -81 0 -141 128 -98 210 26 49 61 70 122
70 49 0 59 -4 88 -33z m5521 8 c53 -35 68 -132 29 -191 -38 -58 -139 -67 -186
-18 -18 19 -24 39 -27 88 -5 73 6 98 51 127 37 23 93 21 133 -6z m722 -1205
c103 -74 94 -180 -18 -210 -64 -17 -147 8 -171 51 -23 44 16 134 73 169 45 27
68 25 116 -10z m-7168 -30 c22 -11 47 -32 57 -46 18 -27 23 -100 10 -146 -21
-77 -194 -77 -214 0 -21 78 4 158 60 192 39 24 39 24 87 0z m7540 -1502 c53
-33 45 -135 -16 -196 -31 -31 -39 -34 -76 -29 -69 9 -138 79 -138 138 0 38 46
88 90 99 43 11 113 5 140 -12z m-7753 -22 c31 -36 32 -112 2 -150 -60 -76
-174 -73 -215 6 -9 17 -17 54 -17 81 -1 43 3 53 28 75 27 22 35 24 104 20 66
-5 77 -8 98 -32z"/>
<path d="M8898 12749 c-291 -31 -509 -94 -751 -216 -200 -102 -368 -224 -507
-369 -283 -295 -411 -588 -462 -1049 -18 -168 -18 -938 0 -1055 30 -187 77
-266 197 -333 78 -43 108 -91 136 -221 59 -277 184 -511 419 -785 102 -119
170 -221 170 -256 0 -12 -9 -34 -21 -49 -53 -68 -535 -400 -894 -616 -259
-156 -414 -227 -690 -318 -397 -131 -555 -218 -740 -406 -274 -280 -349 -458
-374 -896 -12 -198 -25 -600 -20 -600 15 0 233 31 235 33 2 1 12 141 24 310
11 170 27 347 35 395 40 234 123 397 289 571 162 168 323 248 768 381 l229 68
622 -372 c672 -403 1309 -780 1423 -842 l71 -38 198 113 c109 63 370 216 579
341 724 431 1151 683 1236 728 83 43 87 44 152 38 37 -3 136 -26 220 -50 443
-127 642 -245 827 -491 140 -186 189 -362 211 -755 12 -225 12 -1085 0 -1213
-12 -122 -32 -168 -103 -235 -94 -88 -85 -86 -464 -90 l-333 -4 0 244 c-1 247
-9 364 -31 412 -17 36 -72 68 -119 70 -109 2 -150 -141 -150 -531 l0 -193
-2245 0 -2245 0 0 203 c-1 393 -28 517 -114 517 -37 0 -89 -30 -111 -64 -24
-36 -35 -171 -35 -429 l0 -229 -317 4 c-289 4 -324 6 -381 25 -147 49 -187
124 -212 396 -15 165 -28 216 -60 249 -52 51 -145 27 -184 -48 -19 -35 -21
-56 -20 -194 1 -133 5 -169 28 -255 29 -111 58 -176 111 -247 87 -118 196
-144 700 -170 191 -10 855 -13 2795 -12 2956 0 3398 8 3480 61 46 30 132 117
175 178 52 72 71 119 85 205 11 71 12 653 1 1380 l-6 455 -88 168 c-117 224
-171 303 -291 422 -180 179 -350 272 -729 396 -364 120 -566 226 -1096 576
-358 236 -521 363 -521 405 0 44 60 130 204 293 207 234 338 483 396 748 30
136 51 171 131 223 106 69 166 148 187 249 34 158 41 914 12 1180 -57 523
-339 970 -805 1278 -266 175 -614 291 -955 317 -149 11 -161 11 -272 -1z m347
-339 c248 -23 387 -60 582 -156 443 -219 727 -541 814 -924 26 -111 49 -617
30 -630 -22 -13 -165 -20 -202 -10 -88 25 -126 87 -139 228 -4 54 -17 122 -29
152 -78 205 -377 383 -784 465 -705 141 -1517 -64 -1697 -429 -26 -52 -32 -80
-40 -174 -12 -152 -45 -212 -129 -241 -38 -12 -251 -15 -251 -3 0 31 32 404
40 472 39 309 160 551 389 780 134 133 246 215 402 295 288 147 645 209 1014
175z m176 -1119 c238 -42 480 -141 575 -235 59 -60 68 -83 83 -229 25 -246
160 -372 441 -411 146 -21 156 -30 171 -148 15 -123 -21 -279 -68 -291 -10 -3
-31 -8 -46 -11 -62 -14 -140 -85 -181 -165 -10 -18 -25 -81 -33 -140 -24 -179
-99 -362 -225 -551 -247 -371 -700 -597 -1158 -577 -324 14 -606 132 -837 351
-215 204 -342 447 -408 786 -39 202 -49 215 -207 288 -53 25 -91 49 -99 63 -9
17 -10 68 -6 198 4 95 8 176 11 178 2 2 59 12 127 23 144 22 216 47 285 98 95
72 148 171 174 321 32 185 112 275 320 361 94 39 282 85 400 99 52 6 109 13
125 15 17 2 122 3 235 1 149 -2 236 -9 321 -24z m-846 -2956 c374 -104 591
-104 965 1 85 24 160 44 167 44 23 0 33 -38 33 -124 0 -167 -56 -489 -99 -575
-12 -22 -34 -47 -49 -55 -91 -46 -578 -71 -847 -42 -235 25 -277 44 -308 136
-47 140 -80 559 -51 648 5 16 23 13 189 -33z m-470 -349 c9 -29 36 -142 60
-251 70 -311 129 -472 319 -869 41 -88 74 -162 71 -164 -6 -6 -172 88 -617
349 -417 246 -655 379 -675 379 -7 0 -13 11 -13 24 0 19 19 40 83 89 246 192
727 514 749 501 4 -3 15 -29 23 -58z m2044 -18 c216 -134 539 -346 601 -393
67 -51 93 -85 85 -106 -9 -24 -250 -173 -780 -484 -360 -211 -505 -291 -505
-277 0 15 26 75 120 272 142 299 225 545 311 918 18 78 37 142 43 142 5 0 62
-32 125 -72z m-766 -657 c121 -10 142 -20 133 -65 -16 -79 -332 -564 -450
-689 -23 -25 -29 -27 -43 -16 -49 41 -413 637 -437 716 -6 19 -2 25 21 34 61
23 561 36 776 20z"/>
</g>
</svg>
