<?xml version="1.0" standalone="no"?>
<!DOCTYPE svg PUBLIC "-//W3C//DTD SVG 20010904//EN"
 "http://www.w3.org/TR/2001/REC-SVG-20010904/DTD/svg10.dtd">
<svg version="1.0" xmlns="http://www.w3.org/2000/svg"
 width="325.000000pt" height="302.000000pt" viewBox="0 0 325.000000 302.000000"
 preserveAspectRatio="xMidYMid meet">

<g transform="translate(0.000000,302.000000) scale(0.100000,-0.100000)"
fill="#535353" stroke="none">
<path d="M1858 2916 c-165 -56 -257 -122 -334 -237 -90 -136 -113 -238 -113
-511 1 -242 -4 -267 -72 -361 -26 -36 -28 -43 -16 -61 20 -32 116 -76 188 -86
87 -13 306 -13 314 0 3 6 2 10 -4 10 -5 0 -23 12 -40 26 -17 14 -31 22 -31 18
0 -11 -82 76 -110 116 -13 19 -27 37 -31 40 -18 14 -60 162 -65 229 -17 224
97 418 303 517 70 34 73 34 205 34 98 0 140 -4 162 -15 15 -8 32 -15 38 -15
17 0 113 -67 154 -107 80 -80 143 -203 144 -283 0 -20 5 -41 11 -47 7 -7 9
-27 5 -50 -3 -21 -8 -58 -11 -83 -4 -25 -8 -49 -9 -55 -2 -5 -4 -13 -5 -18 0
-4 -15 -35 -32 -70 -38 -75 -122 -173 -178 -207 -22 -14 -39 -29 -37 -35 2 -6
59 -10 147 -10 155 1 226 15 291 59 46 30 46 56 3 113 -39 51 -41 57 -54 153
-6 46 -5 102 6 190 24 204 8 315 -67 459 -77 149 -204 248 -342 271 -36 5 -73
8 -81 4 -8 -3 -38 6 -66 20 -73 38 -148 35 -273 -8z"/>
<path d="M561 1539 c-136 -23 -277 -131 -339 -259 -85 -177 -57 -355 83 -520
62 -73 88 -120 108 -199 8 -30 24 -64 36 -77 22 -23 28 -24 182 -24 94 0 168
4 182 11 26 12 42 36 52 82 15 73 49 139 105 203 144 166 174 345 89 521 -91
187 -298 297 -498 262z"/>
<path d="M1202 1521 c-29 -10 -55 -20 -57 -23 -3 -3 14 -37 38 -77 71 -114 92
-192 92 -341 0 -111 -3 -134 -28 -205 -32 -90 -71 -156 -136 -229 -47 -54 -64
-88 -91 -184 -27 -95 -1 -180 77 -253 79 -76 64 -74 491 -77 l384 -3 -8 23
c-21 66 -199 623 -312 978 l-129 405 -134 2 c-108 2 -144 -1 -187 -16z"/>
<path d="M2587 1534 c-4 -9 -166 -513 -227 -709 -15 -49 -71 -225 -124 -389
-52 -164 -94 -302 -92 -305 2 -3 174 -4 383 -1 420 6 402 3 484 77 94 85 101
133 97 675 l-3 423 -26 55 c-36 77 -71 115 -137 147 -53 26 -67 28 -203 32
-81 1 -149 -1 -152 -5z m338 -874 c17 -18 17 -21 1 -45 l-16 -25 -208 0 c-218
0 -232 3 -232 45 0 42 14 45 230 45 193 0 208 -1 225 -20z"/>
<path d="M1920 1349 c-69 -60 -124 -115 -123 -122 1 -6 29 -97 63 -202 34
-104 92 -284 128 -398 37 -115 68 -204 70 -199 10 32 137 429 157 492 13 41
41 130 63 197 l39 121 -124 107 c-68 58 -129 108 -136 110 -6 2 -68 -46 -137
-106z"/>
<path d="M469 393 c-8 -9 -14 -38 -13 -71 0 -49 4 -58 31 -81 16 -14 33 -38
37 -53 11 -49 30 -58 116 -58 86 0 104 9 117 58 3 15 19 39 35 54 25 23 28 33
28 85 0 33 -5 64 -12 71 -8 8 -60 12 -169 12 -134 0 -159 -2 -170 -17z"/>
</g>
</svg>
