<?xml version="1.0" standalone="no"?>
<!DOCTYPE svg PUBLIC "-//W3C//DTD SVG 20010904//EN"
 "http://www.w3.org/TR/2001/REC-SVG-20010904/DTD/svg10.dtd">
<svg version="1.0" xmlns="http://www.w3.org/2000/svg"
 width="233.000000pt" height="203.000000pt" viewBox="0 0 233.000000 203.000000"
 preserveAspectRatio="xMidYMid meet">

<g transform="translate(0.000000,203.000000) scale(0.100000,-0.100000)"
fill="#535353" stroke="none">
<path d="M1430 1864 c-147 -54 -237 -188 -228 -342 16 -280 342 -420 547 -236
228 205 100 576 -203 591 -48 2 -85 -2 -116 -13z"/>
<path d="M975 1161 c-60 -37 -94 -98 -95 -173 l0 -38 119 0 c110 0 122 -2 145
-22 19 -17 50 -93 121 -292 52 -147 95 -279 95 -292 0 -23 3 -24 61 -24 49 0
60 3 56 14 -14 35 -260 803 -265 824 -4 21 -9 22 -106 22 -81 0 -107 -4 -131
-19z"/>
<path d="M1791 963 c-144 -447 -201 -628 -201 -635 0 -5 100 -8 223 -8 241 0
274 7 324 61 40 44 43 70 43 371 0 275 -1 294 -21 335 -35 72 -67 87 -191 91
l-106 4 -71 -219z m283 -319 c14 -36 -11 -44 -146 -44 -134 0 -150 5 -134 45
9 23 271 22 280 -1z"/>
<path d="M1452 1070 l-81 -70 19 -57 c10 -32 44 -137 75 -233 31 -96 59 -182
62 -190 5 -13 162 447 163 475 0 6 -36 40 -79 77 l-79 67 -80 -69z"/>
<path d="M194 877 c-4 -11 91 -293 166 -489 l21 -58 460 0 c344 0 459 3 459
12 0 6 -33 104 -74 217 -41 113 -82 229 -91 256 -10 28 -22 56 -27 63 -16 18
-906 18 -914 -1z"/>
</g>
</svg>
