<?xml version="1.0" standalone="no"?>
<!DOCTYPE svg PUBLIC "-//W3C//DTD SVG 20010904//EN"
 "http://www.w3.org/TR/2001/REC-SVG-20010904/DTD/svg10.dtd">
<svg version="1.0" xmlns="http://www.w3.org/2000/svg"
 width="1655.000000pt" height="1706.000000pt" viewBox="0 0 1655.000000 1706.000000"
 preserveAspectRatio="xMidYMid meet">

<g transform="translate(0.000000,1706.000000) scale(0.100000,-0.100000)"
fill="#1D4B85" stroke="none">
<path d="M7700 16559 c-1222 -61 -2674 -556 -3795 -1293 -425 -280 -723 -527
-1204 -1001 -352 -347 -519 -535 -754 -850 -1711 -2294 -2056 -5327 -902
-7925 290 -653 633 -1230 1009 -1695 294 -364 763 -846 1130 -1160 921 -789
2001 -1345 3176 -1635 638 -157 1246 -230 1920 -230 778 0 1457 93 2167 295
1538 440 2875 1316 3928 2575 228 272 546 728 739 1060 206 353 432 832 579
1230 449 1213 600 2583 422 3827 -189 1319 -716 2591 -1508 3645 -457 609
-985 1138 -1592 1593 -946 711 -2036 1197 -3215 1435 -231 46 -561 95 -750
110 -365 29 -985 38 -1350 19z m1220 -323 c1689 -160 3198 -807 4405 -1888
171 -154 494 -480 638 -646 737 -845 1282 -1834 1592 -2885 111 -379 217 -865
250 -1142 21 -177 38 -861 30 -1235 -15 -761 -61 -1123 -210 -1654 -250 -890
-554 -1571 -1009 -2261 -480 -726 -1120 -1413 -1771 -1900 -888 -664 -2059
-1190 -3115 -1399 -934 -185 -1997 -181 -2949 10 -1551 311 -3044 1148 -4095
2293 -932 1016 -1543 2208 -1850 3611 -100 460 -107 535 -113 1322 -8 998 17
1348 132 1855 46 206 152 576 232 813 535 1590 1591 2949 3033 3905 1072 711
2332 1124 3700 1215 204 13 904 4 1100 -14z"/>
<path d="M5450 12110 c-956 -8 -1348 -19 -1478 -41 -108 -19 -266 -146 -291
-235 -48 -171 -52 -434 -74 -5074 l-4 -835 58 -85 c74 -108 156 -190 230 -230
72 -38 132 -44 604 -62 487 -17 3039 -18 3360 0 256 14 284 21 317 82 32 60
14 166 -31 189 -65 33 -413 42 -2186 51 -1615 9 -1918 15 -1966 40 -25 14 -28
85 -39 910 -30 2193 -40 4572 -21 4745 16 144 49 195 137 215 142 33 368 35
4144 35 3790 0 3997 -2 4147 -35 63 -15 94 -39 128 -102 26 -45 29 -63 28
-122 -1 -38 -5 -72 -10 -76 -4 -4 -1140 -15 -2523 -24 -1383 -9 -2777 -19
-3097 -22 l-583 -7 0 -122 0 -123 133 -6 c72 -3 1417 -12 2987 -21 1570 -9
2906 -18 2969 -21 l114 -6 -7 -1232 c-12 -2060 -25 -3470 -36 -3681 -14 -262
-21 -307 -59 -350 -55 -64 -52 -170 9 -238 24 -27 35 -32 72 -31 112 2 278
156 313 290 35 133 38 372 32 2704 -8 2766 -15 3062 -83 3290 -32 108 -139
181 -292 200 -44 6 -205 15 -358 21 -355 13 -5310 20 -6644 9z"/>
<path d="M5050 11439 c-112 -46 -140 -213 -42 -250 40 -16 128 -6 160 18 15
10 36 37 46 58 17 35 18 42 5 78 -25 72 -111 120 -169 96z"/>
<path d="M5550 11439 c-112 -46 -140 -213 -42 -250 40 -16 128 -6 160 18 15
10 36 37 46 58 17 35 18 42 5 78 -25 72 -111 120 -169 96z"/>
<path d="M4535 11430 c-71 -29 -106 -133 -67 -196 22 -34 76 -64 117 -64 67 0
145 69 145 127 0 37 -35 90 -79 120 -34 23 -80 28 -116 13z"/>
<path d="M5285 10441 c-64 -16 -113 -48 -191 -126 -109 -109 -149 -188 -149
-295 0 -66 4 -82 27 -117 33 -51 87 -77 136 -68 50 9 105 68 122 131 36 132
112 202 208 191 70 -8 129 -65 151 -145 16 -55 -7 -91 -137 -225 -131 -135
-173 -203 -180 -292 -2 -29 1 -69 8 -89 23 -71 116 -112 193 -87 43 15 97 73
97 104 0 37 50 106 163 226 195 206 218 316 112 536 -91 188 -222 266 -440
264 -49 -1 -103 -4 -120 -8z"/>
<path d="M6645 10270 c-132 -10 -163 -17 -181 -45 -16 -24 -22 -134 -9 -156
32 -51 196 -58 1300 -59 1170 0 1368 10 1410 67 18 23 29 95 21 129 -10 38
-57 52 -208 64 -150 11 -2172 11 -2333 0z"/>
<path d="M7240 9639 c-655 -11 -752 -24 -779 -100 -6 -18 -11 -53 -11 -79 0
-58 26 -95 78 -110 105 -29 2910 -39 3221 -10 155 14 189 24 233 72 47 51 54
81 29 121 -46 75 -86 93 -242 107 -119 11 -1921 10 -2529 -1z"/>
<path d="M5350 9092 c-65 -32 -89 -125 -50 -189 51 -85 176 -82 236 6 79 116
-55 249 -186 183z"/>
<path d="M5350 8181 c-142 -46 -265 -136 -336 -247 -41 -64 -74 -160 -74 -216
0 -122 113 -193 220 -138 50 25 69 54 79 118 15 95 77 153 171 160 80 6 123
-16 161 -82 31 -55 36 -85 18 -119 -7 -12 -56 -68 -110 -123 -145 -151 -209
-261 -209 -363 0 -82 67 -151 147 -151 76 0 153 53 153 105 0 34 50 102 163
225 141 153 160 188 165 308 11 241 -113 408 -376 511 -75 29 -112 32 -172 12z"/>
<path d="M6552 7980 c-66 -10 -106 -44 -121 -103 -9 -36 -7 -48 12 -87 26 -53
53 -68 145 -82 66 -9 544 -4 685 8 l67 6 0 123 0 122 -87 6 c-156 11 -646 16
-701 7z"/>
<path d="M7967 7974 c-55 -17 -184 -132 -211 -188 -74 -157 53 -399 942 -1781
413 -643 502 -789 487 -803 -4 -4 -248 -7 -543 -7 -474 0 -545 -2 -605 -18
-130 -33 -193 -85 -251 -206 -29 -62 -31 -73 -31 -176 0 -99 3 -116 27 -168
45 -96 78 -130 171 -175 182 -89 572 -245 1052 -422 517 -190 1052 -393 1098
-417 57 -28 108 -94 199 -256 134 -238 268 -327 493 -327 175 0 231 35 898
558 652 511 774 638 793 822 8 83 -10 198 -41 264 -13 28 -47 83 -76 121 -103
141 -171 307 -375 921 -165 499 -263 769 -326 906 -34 73 -49 94 -92 127 -71
54 -103 69 -176 80 -142 23 -315 -10 -1280 -244 l-435 -105 -65 67 c-36 38
-234 250 -440 473 -424 459 -767 810 -855 877 -95 73 -147 93 -235 92 -41 0
-97 -7 -123 -15z m129 -343 c108 -78 364 -335 938 -946 187 -198 378 -400 425
-449 l86 -89 95 12 c116 15 479 94 944 207 571 138 732 165 778 130 39 -29
140 -298 313 -831 206 -635 302 -878 402 -1016 69 -96 102 -160 103 -196 0
-12 -15 -39 -32 -59 -124 -142 -1027 -853 -1292 -1019 l-76 -47 -29 24 c-46
36 -132 146 -224 286 -49 75 -106 147 -138 176 -98 88 -278 165 -953 408 -831
298 -1134 412 -1257 474 -67 33 -109 72 -109 99 0 13 12 38 27 56 l27 32 466
-8 c728 -14 719 -15 814 85 136 142 146 273 34 459 -99 164 -358 572 -629 988
-389 597 -643 992 -716 1112 -84 138 -83 175 3 112z"/>
<path d="M9685 7345 c-78 -8 -152 -22 -186 -34 -104 -39 -141 -109 -99 -190
33 -66 75 -81 237 -81 188 0 329 31 372 84 17 21 17 66 -2 101 -17 34 -91 107
-124 124 -25 13 -26 13 -198 -4z"/>
<path d="M6528 7307 c-62 -18 -74 -29 -93 -87 -14 -42 -14 -52 -2 -82 19 -44
54 -74 102 -87 45 -12 541 -15 808 -4 l167 6 0 123 c0 68 -4 125 -8 128 -4 2
-215 7 -467 10 -368 5 -469 4 -507 -7z"/>
<path d="M5343 6819 c-47 -14 -66 -49 -66 -118 0 -117 65 -177 162 -151 100
27 142 131 87 215 -29 44 -124 72 -183 54z"/>
</g>
</svg>
