<?xml version="1.0" standalone="no"?>
<!DOCTYPE svg PUBLIC "-//W3C//DTD SVG 20010904//EN"
 "http://www.w3.org/TR/2001/REC-SVG-20010904/DTD/svg10.dtd">
<svg version="1.0" xmlns="http://www.w3.org/2000/svg"
 width="236.000000pt" height="220.000000pt" viewBox="0 0 236.000000 220.000000"
 preserveAspectRatio="xMidYMid meet">

<g transform="translate(0.000000,220.000000) scale(0.100000,-0.100000)"
fill="#535353" stroke="none">
<path d="M860 1979 c-35 -14 -69 -48 -91 -91 -15 -29 -19 -59 -19 -138 l0
-100 -188 0 c-170 0 -191 -2 -205 -18 -15 -16 -17 -50 -17 -270 l0 -252 49 0
c26 0 69 -3 95 -6 44 -6 46 -6 46 19 0 38 43 67 100 67 59 0 100 -28 100 -70
l0 -28 199 -7 c110 -4 292 -4 405 0 l206 7 0 27 c0 47 33 71 96 71 47 0 59 -4
80 -27 15 -16 23 -35 21 -45 -5 -17 2 -18 81 -12 48 3 93 7 100 10 8 2 12 26
12 74 l0 70 -28 0 c-81 0 -178 55 -240 136 -40 51 -73 171 -62 220 l8 34 -44
0 -44 0 0 93 c0 109 -26 179 -81 218 -34 24 -37 24 -294 26 -159 1 -270 -2
-285 -8z m515 -121 c16 -20 25 -58 25 -108 0 -106 16 -100 -263 -100 -176 0
-246 3 -255 12 -7 7 -12 42 -12 89 0 122 -7 118 240 121 175 3 255 -2 265 -14z"/>
<path d="M1890 1810 c-61 -11 -119 -50 -152 -105 -27 -43 -32 -60 -32 -115 0
-73 15 -109 66 -159 45 -45 86 -61 156 -61 99 0 165 40 202 122 76 166 -63
350 -240 318z m143 -67 c50 -35 77 -88 77 -153 0 -185 -221 -259 -329 -109
-57 78 -49 171 19 239 22 22 54 44 72 49 50 15 117 4 161 -26z"/>
<path d="M1910 1640 l0 -81 77 3 c50 2 78 7 81 16 3 9 -14 12 -61 12 -74 0
-77 3 -77 81 0 27 -4 49 -10 49 -6 0 -10 -33 -10 -80z"/>
<path d="M610 1020 c0 -98 1 -101 21 -98 20 3 22 9 22 98 0 89 -2 95 -22 98
-20 3 -21 0 -21 -98z"/>
<path d="M1620 1020 c0 -99 0 -101 23 -98 21 3 22 7 22 98 0 91 -1 95 -22 98
-23 3 -23 1 -23 -98z"/>
<path d="M340 707 c0 -262 1 -285 18 -300 17 -16 85 -17 775 -17 744 0 757 0
777 20 19 19 20 33 20 300 l0 280 -42 -1 c-24 -1 -68 -4 -98 -7 -55 -7 -55 -7
-52 -39 2 -22 -4 -43 -18 -63 -20 -28 -26 -30 -85 -30 -55 0 -66 3 -79 22 -9
12 -16 37 -16 55 l0 33 -405 0 -405 0 0 -33 c0 -52 -33 -77 -101 -77 -70 0
-99 25 -99 87 l0 40 -67 6 c-38 4 -80 7 -95 7 l-28 0 0 -283z"/>
</g>
</svg>
