<?xml version="1.0" standalone="no"?>
<!DOCTYPE svg PUBLIC "-//W3C//DTD SVG 20010904//EN"
 "http://www.w3.org/TR/2001/REC-SVG-20010904/DTD/svg10.dtd">
<svg version="1.0" xmlns="http://www.w3.org/2000/svg"
 width="252.000000pt" height="220.000000pt" viewBox="0 0 252.000000 220.000000"
 preserveAspectRatio="xMidYMid meet">

<g transform="translate(0.000000,220.000000) scale(0.100000,-0.100000)"
fill="#535353" stroke="none">
<path d="M1170 2033 c-11 -14 -20 -29 -20 -33 0 -4 34 -31 75 -59 41 -29 75
-57 75 -63 0 -6 -36 -62 -80 -124 -44 -62 -80 -118 -80 -123 0 -5 26 -41 58
-80 31 -38 97 -122 145 -185 l88 -115 192 -62 c106 -34 202 -65 215 -70 20 -8
30 1 95 90 40 54 80 109 89 122 l16 24 38 -21 c57 -32 61 -44 28 -90 -102
-142 -107 -147 -131 -123 -8 8 -23 -5 -57 -51 -25 -34 -46 -66 -46 -70 0 -9
96 -80 108 -80 4 0 26 30 50 66 31 47 40 69 33 78 -10 12 -1 29 78 139 38 51
42 53 70 35 17 -10 23 -8 40 13 11 13 20 27 21 31 0 4 -27 27 -59 50 -33 24
-126 90 -207 148 -81 58 -172 123 -203 146 -31 22 -144 102 -251 178 -107 76
-206 146 -220 157 -14 10 -51 37 -82 58 l-58 40 -20 -26z"/>
<path d="M250 1000 l0 -510 320 0 319 0 83 70 c46 38 98 77 115 87 31 17 33
17 46 -1 13 -18 14 -18 20 6 20 80 142 168 233 168 70 0 146 -34 197 -89 51
-54 67 -98 67 -183 l0 -58 85 0 85 0 0 285 0 284 -37 10 c-212 54 -383 104
-402 115 -11 7 -160 204 -215 284 l-29 42 -443 0 -444 0 0 -510z m1120 135 l0
-35 -320 0 -320 0 0 28 c0 16 3 32 7 35 3 4 147 7 320 7 l313 0 0 -35z m110
-120 l0 -35 -412 2 c-389 3 -413 4 -416 21 -9 48 -20 47 418 47 l410 0 0 -35z
m-5 -135 l0 -35 -399 -3 c-286 -1 -403 1 -412 9 -15 12 -19 51 -7 62 4 4 189
6 412 5 l406 -3 0 -35z"/>
<path d="M1340 709 c-38 -15 -88 -68 -101 -107 -6 -20 -8 -53 -4 -80 9 -63 72
-126 134 -135 88 -11 167 38 192 121 37 125 -100 249 -221 201z"/>
<path d="M1095 520 c-4 -6 -36 -33 -72 -60 l-66 -50 29 -11 c16 -5 54 -20 84
-33 60 -24 62 -28 75 -149 l7 -58 49 43 c28 24 63 51 80 61 36 23 36 31 2 72
-16 17 -57 69 -91 113 -61 78 -83 95 -97 72z"/>
</g>
</svg>
