<?xml version="1.0" standalone="no"?>
<!DOCTYPE svg PUBLIC "-//W3C//DTD SVG 20010904//EN"
 "http://www.w3.org/TR/2001/REC-SVG-20010904/DTD/svg10.dtd">
<svg version="1.0" xmlns="http://www.w3.org/2000/svg"
 width="670.000000pt" height="583.000000pt" viewBox="0 0 670.000000 583.000000"
 preserveAspectRatio="xMidYMid meet">

<g transform="translate(0.000000,583.000000) scale(0.100000,-0.100000)"
fill="#535353" stroke="none">
<path d="M695 5255 c-5 -2 -22 -6 -37 -9 -34 -8 -93 -59 -116 -100 -16 -29
-17 -134 -20 -1402 l-2 -1371 -56 -6 c-197 -20 -260 -258 -94 -355 l45 -27
1203 -3 1202 -2 0 195 0 195 -1035 0 -1035 0 0 1330 0 1330 2091 0 2091 0 -7
47 c-11 75 -48 127 -115 164 -21 12 -357 14 -2065 16 -1122 1 -2044 0 -2050
-2z"/>
<path d="M4410 4894 c-236 -63 -440 -176 -553 -305 -67 -76 -162 -243 -191
-334 -47 -149 -56 -244 -54 -565 1 -208 -2 -308 -11 -340 -7 -25 -17 -61 -23
-81 -5 -19 -34 -68 -64 -109 -30 -40 -54 -81 -54 -90 0 -49 99 -112 235 -151
72 -20 103 -22 320 -23 214 -1 240 1 243 15 2 10 -6 19 -20 23 -13 3 -39 19
-58 36 -20 17 -41 28 -50 25 -8 -4 -11 -3 -8 1 8 8 -16 34 -31 34 -6 0 -11 3
-11 8 0 4 -21 29 -45 55 -25 26 -59 69 -77 95 -17 26 -34 49 -38 52 -22 18
-90 217 -90 263 0 18 -5 38 -11 44 -12 12 -7 166 10 263 11 66 58 197 73 206
4 3 8 12 8 20 0 9 6 22 13 29 6 8 28 38 47 66 19 28 45 61 58 73 12 11 40 38
61 59 22 20 43 37 47 37 3 0 14 8 23 18 9 9 48 32 86 50 39 19 78 38 87 43 10
5 27 9 38 9 11 0 20 5 20 10 0 6 76 10 209 10 129 0 212 -4 216 -10 3 -5 14
-10 24 -10 19 0 64 -19 121 -51 19 -11 43 -23 53 -26 9 -3 17 -9 17 -14 0 -5
4 -9 10 -9 10 0 36 -20 92 -72 17 -16 35 -28 41 -28 6 0 7 -3 4 -6 -4 -4 1
-14 11 -23 26 -23 92 -117 92 -130 0 -6 3 -11 8 -11 8 0 22 -29 57 -125 30
-81 47 -182 47 -275 0 -81 -19 -221 -32 -234 -6 -6 -10 -16 -10 -24 0 -19 -52
-136 -62 -140 -4 -2 -8 -10 -8 -18 0 -8 -4 -14 -10 -14 -5 0 -10 -5 -10 -11 0
-24 -167 -209 -189 -209 -4 0 -16 -8 -27 -18 -10 -9 -34 -27 -52 -38 l-33 -21
27 -18 c24 -15 45 -17 203 -11 265 9 317 18 438 79 46 24 103 77 103 96 0 4
-27 45 -60 91 -67 93 -74 113 -91 250 -10 74 -10 118 0 195 27 229 32 305 26
396 -8 131 -37 247 -90 355 -102 210 -220 340 -380 418 -104 51 -165 66 -273
66 -61 0 -84 5 -112 21 -56 34 -141 59 -200 58 -30 -1 -93 -12 -140 -25z"/>
<path d="M2075 4623 c-79 -28 -138 -68 -193 -128 -127 -139 -158 -333 -78
-501 185 -391 732 -337 841 83 54 206 -55 433 -252 526 -60 28 -80 32 -168 34
-77 3 -112 -1 -150 -14z"/>
<path d="M1506 3694 c-62 -19 -137 -92 -154 -150 -8 -29 -12 -152 -12 -428 0
-419 0 -420 57 -494 14 -19 49 -45 77 -58 50 -23 56 -24 360 -24 288 0 308 1
302 17 -4 10 -54 166 -112 348 -58 181 -139 434 -180 562 -41 128 -74 235 -74
238 0 12 -218 3 -264 -11z"/>
<path d="M2592 3523 c-55 -171 -290 -906 -306 -960 l-7 -23 273 0 274 0 28 65
c32 74 130 174 190 196 l36 13 0 352 0 352 -28 53 c-54 104 -132 139 -306 139
l-94 0 -60 -187z m332 -539 c9 -8 16 -21 16 -28 0 -31 -24 -36 -195 -36 -171
0 -195 5 -195 36 0 7 7 20 16 28 13 13 44 16 179 16 135 0 166 -3 179 -16z"/>
<path d="M2100 3550 c-58 -50 -104 -96 -103 -103 4 -28 207 -657 212 -657 3 0
30 76 58 168 29 92 77 242 107 333 l53 167 -104 88 c-58 49 -108 90 -111 91
-4 2 -54 -38 -112 -87z"/>
<path d="M3326 2704 c-169 -46 -292 -166 -337 -329 -11 -41 -14 -184 -14 -760
l0 -710 24 -65 c13 -36 39 -88 58 -117 57 -87 104 -122 238 -179 11 -5 280
-11 598 -14 508 -4 577 -3 577 10 0 8 -11 49 -24 90 -13 41 -34 107 -45 145
-12 39 -26 79 -31 90 -5 11 -13 36 -19 55 -9 32 -82 263 -186 590 -24 74 -71
223 -105 330 -34 107 -72 227 -85 265 -24 73 -122 382 -157 495 -11 36 -24 77
-30 93 l-10 27 -202 -1 c-133 -1 -218 -6 -250 -15z"/>
<path d="M5430 2698 c-5 -13 -18 -52 -28 -88 -37 -122 -114 -365 -147 -465
-36 -110 -123 -381 -211 -660 -31 -99 -69 -218 -84 -265 -16 -47 -45 -139 -65
-205 -20 -66 -40 -129 -45 -140 -13 -33 -103 -319 -104 -333 -1 -10 111 -12
567 -12 553 0 569 1 625 22 144 53 250 169 287 313 13 46 15 177 15 764 0 478
-4 719 -11 742 -41 131 -131 244 -232 293 -90 45 -162 55 -370 56 -185 0 -188
0 -197 -22z m503 -1317 c51 -20 56 -105 8 -130 -13 -7 -131 -11 -331 -11
l-311 0 -24 25 c-38 37 -29 96 18 115 29 12 609 13 640 1z"/>
<path d="M4530 2534 c-36 -31 -78 -68 -95 -83 -16 -14 -76 -66 -133 -115 -77
-65 -102 -92 -97 -105 11 -28 71 -209 130 -396 216 -682 270 -845 277 -845 5
0 8 6 8 13 0 12 56 196 70 232 5 11 15 43 24 70 21 70 132 419 171 540 18 55
47 147 65 205 17 58 36 112 40 121 5 9 12 32 15 51 6 33 3 37 -53 84 -32 27
-120 102 -195 167 -75 64 -142 117 -149 117 -7 0 -42 -26 -78 -56z"/>
</g>
</svg>
