<?xml version="1.0" standalone="no"?>
<!DOCTYPE svg PUBLIC "-//W3C//DTD SVG 20010904//EN"
 "http://www.w3.org/TR/2001/REC-SVG-20010904/DTD/svg10.dtd">
<svg version="1.0" xmlns="http://www.w3.org/2000/svg"
 width="1753.000000pt" height="1702.000000pt" viewBox="0 0 1753.000000 1702.000000"
 preserveAspectRatio="xMidYMid meet">

<g transform="translate(0.000000,1702.000000) scale(0.100000,-0.100000)"
fill="#1D4B85" stroke="none">
<path d="M8165 16399 c-1554 -84 -3029 -625 -4285 -1570 -519 -391 -1034 -892
-1444 -1407 -888 -1116 -1461 -2469 -1645 -3892 -49 -380 -56 -500 -55 -1025
0 -550 10 -701 74 -1149 169 -1167 603 -2299 1250 -3261 283 -419 474 -648
940 -1118 392 -398 601 -586 895 -805 1373 -1026 3011 -1572 4715 -1572 2401
0 4675 1086 6169 2945 816 1016 1368 2205 1625 3505 76 382 86 549 86 1460 0
875 -10 1045 -81 1410 -186 952 -525 1852 -989 2630 -671 1124 -1680 2122
-2825 2796 -203 119 -650 344 -870 437 -861 364 -1743 566 -2700 617 -217 11
-638 11 -860 -1z m1150 -328 c1056 -93 2149 -433 3047 -950 1038 -596 1956
-1451 2593 -2416 1093 -1654 1501 -3675 1129 -5598 -191 -988 -590 -1961
-1147 -2797 -1174 -1759 -3038 -2954 -5137 -3294 -293 -47 -522 -64 -995 -72
-510 -10 -1021 16 -1333 66 -1068 173 -2062 553 -2973 1136 -457 293 -839 603
-1255 1018 -263 264 -413 431 -605 676 -1636 2084 -2062 4840 -1132 7319 179
478 427 975 708 1418 722 1137 1770 2099 2930 2688 852 433 1856 729 2705 800
102 8 214 17 250 19 143 8 1093 -3 1215 -13z"/>
<path d="M10500 12636 c-132 -28 -257 -86 -483 -223 -450 -273 -915 -625
-1227 -928 -182 -177 -229 -211 -290 -208 -25 1 -126 24 -225 52 -729 206
-1306 312 -2070 381 -192 18 -627 24 -735 12 -151 -18 -195 -35 -260 -100 -68
-69 -97 -135 -116 -272 -7 -52 -13 -96 -13 -97 -5 -11 -85 -23 -162 -23 -174
0 -300 -35 -377 -105 -94 -84 -103 -150 -109 -796 -8 -781 10 -889 149 -889
98 0 111 41 128 385 12 247 30 848 30 988 l0 97 164 0 163 0 6 -67 c4 -38 7
-156 7 -263 1 -295 18 -804 31 -910 14 -115 42 -195 76 -217 15 -10 46 -17 75
-17 45 0 54 4 83 36 75 81 85 219 85 1166 l0 763 38 17 c32 15 73 17 287 17
263 0 348 -7 745 -56 617 -76 1198 -195 1695 -348 l190 -58 -2 -1814 c-1
-1837 -6 -2096 -37 -2144 l-15 -22 -183 54 c-472 140 -938 241 -1318 287 -204
25 -328 35 -660 51 -340 17 -487 34 -554 64 -58 25 -120 83 -145 134 -26 54
-41 185 -41 364 0 168 -14 278 -43 352 -29 71 -63 96 -128 95 -62 -1 -96 -24
-129 -90 -24 -47 -25 -59 -29 -257 -3 -219 9 -393 34 -492 21 -80 65 -151 153
-246 142 -153 229 -177 792 -219 914 -70 1736 -228 2243 -432 82 -33 172 -64
200 -70 49 -10 59 -9 157 27 304 109 494 170 670 214 426 109 876 181 1435
231 127 11 307 27 400 36 485 43 588 83 745 291 60 79 76 130 90 278 11 126
27 1149 36 2378 l6 847 164 0 164 0 0 -1969 0 -1969 -57 -52 c-72 -65 -117
-86 -214 -99 -97 -13 -474 -29 -894 -36 -1740 -31 -1875 -50 -2270 -315 -93
-63 -226 -133 -303 -161 -57 -20 -68 -21 -117 -10 -68 15 -210 87 -350 177
-165 106 -230 139 -345 178 -237 78 -357 86 -1530 96 -928 9 -1131 15 -1275
41 -108 19 -187 66 -221 131 -27 52 -54 329 -79 808 -17 338 -32 524 -46 592
-14 62 -45 88 -109 88 -135 0 -156 -109 -146 -745 14 -823 33 -898 267 -1074
89 -67 140 -86 269 -101 116 -13 642 -27 1460 -40 750 -12 1046 -23 1171 -45
128 -22 301 -113 502 -263 169 -127 290 -172 462 -172 181 0 296 45 513 199
358 255 388 261 1672 281 1121 17 1389 30 1554 70 97 24 158 62 238 149 77 84
112 138 138 215 76 230 80 563 40 3476 l-10 695 -78 76 c-108 105 -127 111
-373 117 l-197 4 -5 112 c-3 68 -11 130 -22 159 -21 58 -111 160 -167 188 -62
32 -161 38 -580 39 l-398 0 0 293 c-1 417 -11 472 -104 554 -71 63 -170 83
-286 59z m71 -411 c24 -339 15 -3262 -11 -3495 -25 -225 -65 -337 -147 -409
-25 -23 -125 -81 -224 -132 -375 -190 -860 -526 -1193 -825 -119 -107 -199
-174 -207 -174 -14 0 -19 536 -18 2149 l0 1726 252 222 c274 242 388 334 608
498 269 200 539 375 713 462 117 59 154 73 191 70 l30 -2 6 -90z m1126 -818
c19 -10 36 -29 40 -45 12 -40 7 -1657 -6 -2272 -23 -1092 -41 -1509 -67 -1548
-61 -93 -266 -135 -794 -162 -360 -19 -711 -63 -1144 -145 -275 -51 -446 -78
-454 -70 -29 28 699 548 1023 731 399 224 455 271 510 433 59 175 63 251 77
1738 l12 1321 75 12 c124 19 304 28 506 26 160 -1 195 -4 222 -19z"/>
<path d="M6535 9489 c-194 -24 -359 -139 -473 -328 l-58 -96 -715 -6 c-682 -6
-784 -10 -949 -39 -286 -51 -493 -191 -678 -458 -30 -42 -89 -148 -133 -234
l-79 -158 0 -1152 c0 -1147 6 -1424 34 -1558 33 -156 164 -378 311 -526 108
-108 204 -175 368 -254 l122 -60 2410 -21 c1660 -14 2412 -24 2416 -31 4 -6
14 -49 24 -97 39 -195 110 -359 219 -504 63 -84 241 -259 338 -332 79 -60 181
-109 278 -134 148 -37 305 -45 915 -45 747 1 804 7 1011 110 210 104 408 277
536 468 76 114 108 178 152 304 55 158 70 253 70 432 0 300 -76 548 -229 752
-232 309 -489 467 -866 533 -282 50 -1101 44 -1448 -11 -224 -35 -419 -135
-598 -307 -204 -196 -318 -404 -367 -672 l-23 -120 -389 -3 c-214 -2 -1306 2
-2427 7 l-2038 11 -97 79 c-223 181 -344 347 -380 521 -13 65 -16 249 -19
1350 l-3 1275 87 127 c177 256 250 324 406 373 166 53 472 72 1271 77 l459 3
65 -103 c81 -130 168 -219 253 -261 230 -113 522 -61 698 124 111 117 161 244
161 407 0 335 -301 599 -635 557z m160 -338 c101 -45 145 -116 145 -232 -1
-119 -41 -198 -123 -241 -34 -18 -58 -23 -127 -23 -76 0 -91 3 -139 30 -58 32
-113 95 -132 152 -6 19 -9 63 -7 98 11 180 210 293 383 216z m4725 -3412 c181
-11 247 -25 350 -77 202 -101 379 -284 472 -490 58 -128 81 -240 81 -402 1
-175 -20 -274 -88 -418 -59 -124 -114 -199 -223 -304 -150 -145 -271 -213
-430 -244 -225 -43 -1129 -45 -1403 -3 -237 36 -388 137 -569 380 -67 90 -97
155 -115 252 -33 181 -26 541 14 699 37 142 119 277 240 391 224 211 366 240
1136 230 209 -2 450 -8 535 -14z"/>
<path d="M10089 4927 c-96 -27 -146 -74 -156 -145 -7 -55 26 -124 70 -145 79
-38 290 -47 390 -17 55 16 103 62 115 111 21 84 -23 142 -143 183 -66 23 -216
30 -276 13z"/>
</g>
</svg>
