<?xml version="1.0" standalone="no"?>
<!DOCTYPE svg PUBLIC "-//W3C//DTD SVG 20010904//EN"
 "http://www.w3.org/TR/2001/REC-SVG-20010904/DTD/svg10.dtd">
<svg version="1.0" xmlns="http://www.w3.org/2000/svg"
 width="1739.000000pt" height="1691.000000pt" viewBox="0 0 1739.000000 1691.000000"
 preserveAspectRatio="xMidYMid meet">

<g transform="translate(0.000000,1691.000000) scale(0.100000,-0.100000)"
fill="#1D4B85" stroke="none">
<path d="M8230 16405 c-730 -61 -1106 -122 -1635 -266 -2169 -592 -4028 -2124
-5015 -4134 -486 -990 -725 -1894 -790 -2980 -13 -222 -13 -845 0 -1055 85
-1343 473 -2550 1181 -3671 597 -944 1404 -1772 2322 -2382 2085 -1387 4722
-1706 7067 -855 1447 525 2714 1472 3648 2725 1472 1977 1932 4547 1242 6933
-136 470 -307 904 -535 1355 -385 762 -846 1399 -1454 2005 -375 373 -746 678
-1192 976 -1072 718 -2183 1135 -3449 1294 -493 62 -1047 84 -1390 55z m1055
-345 c344 -17 506 -36 804 -96 1509 -305 2724 -933 3812 -1970 1058 -1010
1783 -2255 2130 -3658 308 -1249 288 -2622 -57 -3866 -434 -1562 -1410 -2993
-2739 -4015 -313 -241 -665 -453 -1175 -709 -572 -286 -911 -421 -1433 -571
-608 -175 -1067 -225 -2057 -225 -676 1 -940 18 -1285 86 -1982 390 -3707
1497 -4833 3101 -1149 1638 -1612 3659 -1286 5618 200 1202 684 2329 1424
3313 204 272 334 417 699 782 534 534 777 736 1246 1038 481 309 868 505 1372
693 419 156 898 296 1283 373 108 21 651 106 765 120 68 7 1107 -3 1330 -14z"/>
<path d="M8530 13874 c-488 -126 -2603 -801 -2924 -933 -130 -53 -169 -80
-195 -133 -50 -105 -46 -214 13 -333 20 -38 40 -90 47 -115 17 -70 24 -464 9
-578 -17 -136 -29 -161 -93 -195 -79 -42 -172 -120 -192 -162 -22 -48 -34
-142 -35 -275 0 -169 -33 -435 -115 -930 -88 -532 -81 -696 33 -790 71 -58
141 -73 381 -78 237 -5 496 10 587 33 81 21 134 59 164 120 21 42 25 68 28
158 5 133 -4 213 -73 622 -72 426 -103 654 -115 838 -19 279 -34 336 -107 396
-21 17 -58 39 -83 48 -72 26 -90 49 -102 134 -14 100 -5 568 12 599 11 21 17
22 74 16 33 -3 124 -18 201 -32 77 -14 210 -36 295 -48 l155 -22 6 -304 c6
-298 13 -365 45 -464 22 -65 14 -183 -20 -296 -43 -144 -58 -254 -63 -458 -8
-297 28 -635 117 -1097 60 -309 107 -595 131 -799 29 -239 31 -608 5 -801 -51
-376 -75 -450 -169 -525 -91 -73 -332 -180 -667 -295 -585 -201 -828 -380
-1043 -770 -111 -199 -140 -301 -157 -552 -13 -201 -13 -583 1 -639 18 -70
105 -134 148 -107 49 31 73 116 91 323 6 69 15 179 21 245 54 623 312 968 883
1180 95 35 515 155 544 155 8 0 275 -157 595 -349 905 -542 1657 -981 1682
-981 23 0 370 202 1522 886 l761 453 313 -101 c472 -151 526 -178 712 -358
283 -272 342 -420 367 -915 12 -248 13 -1189 1 -1346 -12 -155 -23 -187 -77
-248 -100 -111 -147 -121 -580 -121 l-281 0 -6 258 c-7 337 -32 462 -102 508
-32 21 -57 21 -126 -1 l-56 -18 -7 -75 c-3 -41 -6 -209 -6 -374 l0 -298 -2434
0 -2434 0 -5 303 c-5 341 -14 401 -67 450 -37 33 -60 34 -127 3 -35 -16 -57
-35 -68 -56 -25 -48 -35 -178 -35 -452 l0 -248 -302 0 c-417 1 -479 11 -554
92 -83 89 -107 161 -134 387 -22 187 -28 212 -62 235 -31 22 -110 21 -137 -1
-32 -26 -40 -77 -48 -284 -9 -260 3 -310 111 -477 78 -120 133 -156 282 -186
286 -57 535 -61 3659 -60 3290 1 3448 5 3586 74 24 13 83 62 131 110 93 92
137 165 159 265 27 123 18 1680 -12 1920 -14 113 -44 206 -113 343 -81 162
-168 284 -281 397 -196 196 -431 322 -830 446 -312 97 -502 176 -608 254 -78
58 -101 99 -125 222 -48 249 -62 396 -62 647 0 349 41 671 174 1381 100 531
122 723 113 993 -6 196 -22 287 -81 469 -43 133 -45 186 -12 251 48 94 58 173
63 498 l5 300 322 53 c603 99 760 161 796 311 31 131 -9 234 -118 304 -161
104 -383 181 -1737 604 -1196 374 -1384 432 -1408 432 -12 -1 -83 -16 -157
-36z m286 -289 c722 -210 2660 -846 2808 -922 l30 -15 -28 -15 c-63 -33 -428
-95 -766 -129 -128 -13 -212 -15 -377 -10 -231 7 -266 2 -296 -46 -23 -35 -30
-92 -17 -133 15 -46 60 -69 176 -90 49 -8 99 -18 111 -20 50 -11 56 -48 61
-346 l5 -276 -864 -6 c-475 -4 -1316 -7 -1868 -7 l-1004 0 6 263 c5 252 14
326 40 354 20 20 366 68 1197 164 341 40 382 43 630 43 188 0 310 -5 420 -18
211 -24 454 -45 517 -46 68 0 102 27 110 88 8 57 -19 128 -56 147 -35 17 -152
39 -351 64 -307 39 -388 45 -595 45 -243 -1 -366 -13 -1360 -134 l-660 -80
-310 44 c-449 64 -670 104 -705 127 -13 8 -13 10 0 19 42 28 371 147 745 270
231 76 737 243 1125 371 797 262 1041 338 1087 339 18 0 103 -20 189 -45z
m-3055 -2304 c23 -18 24 -27 27 -145 2 -69 2 -126 -1 -126 -49 0 -271 23 -295
31 -43 14 -59 48 -67 145 -10 112 -6 114 176 114 120 0 140 -2 160 -19z m1356
3 c3 -9 -15 -91 -40 -183 -26 -92 -51 -198 -58 -237 -28 -181 -17 -1353 16
-1566 33 -222 211 -559 429 -813 95 -112 156 -207 156 -245 0 -60 -96 -150
-300 -282 -198 -128 -253 -159 -264 -148 -7 7 -13 160 -17 438 -8 527 -16 596
-164 1397 -94 512 -122 778 -112 1085 7 211 31 348 77 446 34 70 54 91 107
110 56 19 162 18 170 -2z m3326 -74 c60 -146 71 -234 71 -545 0 -341 -26 -625
-96 -1025 -16 -96 -43 -249 -58 -340 -61 -351 -77 -536 -90 -1009 -9 -324 -20
-474 -34 -489 -8 -7 -144 73 -301 176 -159 105 -265 204 -265 248 0 45 62 141
162 251 115 126 220 283 302 453 106 219 144 355 161 577 l6 81 -213 70 c-280
91 -411 144 -653 262 -405 198 -766 442 -1045 706 -179 171 -441 485 -493 591
-26 54 -18 62 63 64 30 1 143 5 250 9 107 3 645 7 1196 8 l1001 2 36 -90z
m-2800 -168 c387 -554 945 -1043 1559 -1365 159 -84 303 -146 506 -218 90 -31
178 -69 197 -83 66 -51 57 -115 -41 -307 -138 -270 -366 -493 -649 -634 -196
-99 -205 -100 -570 -100 -356 0 -372 3 -543 85 -131 63 -214 117 -328 213
-200 168 -385 440 -430 634 -44 189 -44 1533 0 1734 16 71 38 121 94 209 l35
55 36 -41 c20 -23 80 -104 134 -182z m-1881 -292 c21 -6 40 -15 43 -19 11 -18
47 -215 105 -566 32 -198 66 -393 75 -433 8 -40 15 -78 15 -84 0 -7 -109 -9
-337 -6 -287 3 -344 6 -375 20 -26 12 -38 23 -38 37 0 102 124 831 165 968 16
55 31 66 115 82 64 12 188 13 232 1z m3596 -2632 c16 -16 15 -108 -3 -330 -24
-289 -38 -349 -92 -409 -57 -63 -157 -84 -468 -98 -317 -15 -643 12 -737 60
-67 34 -107 149 -127 369 -12 127 -13 341 -2 380 9 32 36 31 148 -4 109 -33
381 -94 482 -106 93 -12 191 -3 371 35 132 28 365 91 389 105 21 12 25 12 39
-2z m1086 -832 c66 -50 121 -97 123 -103 11 -33 -1386 -886 -1426 -871 -6 1
14 39 44 82 128 186 264 506 369 867 41 142 95 389 111 501 l6 47 327 -216
c180 -119 381 -257 446 -307z m-2835 481 c5 -13 37 -143 70 -288 87 -374 146
-539 341 -947 51 -106 90 -196 87 -199 -15 -15 -1332 759 -1436 843 -2 2 7 12
20 23 45 38 887 589 902 590 4 1 12 -10 16 -22z m1547 -790 c4 -4 -7 -38 -25
-74 -79 -162 -385 -641 -462 -725 l-39 -43 -35 39 c-75 84 -477 777 -461 794
4 4 51 10 104 13 137 9 909 6 918 -4z"/>
</g>
</svg>
