<?xml version="1.0" standalone="no"?>
<!DOCTYPE svg PUBLIC "-//W3C//DTD SVG 20010904//EN"
 "http://www.w3.org/TR/2001/REC-SVG-20010904/DTD/svg10.dtd">
<svg version="1.0" xmlns="http://www.w3.org/2000/svg"
 width="1727.000000pt" height="1691.000000pt" viewBox="0 0 1727.000000 1691.000000"
 preserveAspectRatio="xMidYMid meet">

<g transform="translate(0.000000,1691.000000) scale(0.100000,-0.100000)"
fill="#1D4B85" stroke="none">
<path d="M8300 16330 c-565 -47 -829 -80 -1155 -146 -1369 -275 -2603 -890
-3680 -1833 -303 -265 -744 -735 -1001 -1066 -1092 -1405 -1674 -3093 -1674
-4850 0 -2104 843 -4127 2336 -5610 1242 -1234 2776 -1994 4519 -2239 305 -43
376 -47 821 -53 768 -10 1277 27 1754 127 1596 333 2937 1053 4060 2180 526
527 838 923 1187 1505 526 875 878 1836 1037 2830 65 404 86 664 93 1117 9
620 -32 1100 -142 1653 -434 2183 -1723 4031 -3645 5222 -680 422 -1470 755
-2230 941 -313 77 -495 109 -900 157 -681 82 -1000 97 -1380 65z m917 -341
c415 -15 568 -32 903 -99 1445 -292 2613 -878 3650 -1831 1073 -987 1778
-2075 2165 -3341 506 -1654 447 -3472 -161 -5009 -502 -1271 -1310 -2374
-2344 -3199 -631 -503 -1336 -900 -2115 -1190 -922 -344 -1705 -473 -2770
-457 -660 10 -1114 65 -1650 198 -1875 467 -3450 1567 -4511 3150 -678 1011
-1097 2157 -1240 3384 -21 180 -30 934 -15 1233 22 437 70 864 127 1136 245
1171 766 2282 1494 3192 504 629 1103 1175 1801 1641 492 329 977 566 1619
792 516 182 1134 328 1625 386 259 31 823 36 1422 14z"/>
<path d="M5920 11949 c-1157 -7 -1644 -18 -1780 -40 -122 -19 -159 -55 -181
-170 -10 -55 -26 -1267 -16 -1292 4 -11 24 -11 116 -1 62 6 113 13 115 15 2 2
11 240 20 529 9 289 19 569 22 623 l6 97 4368 0 4367 0 6 -397 c4 -219 10
-1742 14 -3385 l6 -2988 -891 0 -892 0 0 144 0 143 523 7 c287 3 619 9 738 12
l217 7 7 541 c9 659 4 985 -16 1041 -23 65 -124 108 -163 69 -45 -44 -62 -217
-71 -699 -3 -176 -8 -406 -11 -511 l-6 -191 -372 -7 c-204 -3 -478 -9 -608
-13 l-238 -6 0 310 0 310 110 5 c93 5 119 10 165 33 107 52 136 116 145 320 8
181 18 206 134 335 45 50 91 115 112 157 33 65 36 78 32 135 -5 86 -39 151
-137 268 -44 52 -91 115 -105 140 -27 50 -46 143 -46 230 0 66 -21 148 -48
192 -46 74 -121 104 -279 114 -168 9 -199 23 -369 167 -96 81 -172 117 -244
117 -100 0 -168 -35 -301 -155 -111 -100 -149 -116 -298 -127 -299 -22 -361
-83 -380 -373 -11 -161 -25 -198 -110 -289 -155 -166 -192 -288 -130 -421 12
-26 60 -88 107 -138 106 -115 122 -150 132 -287 13 -168 42 -249 120 -329 54
-55 112 -81 203 -88 61 -5 76 -11 99 -34 27 -27 28 -31 28 -136 0 -91 -33
-440 -42 -448 -2 -1 -905 1 -2008 6 -1103 4 -2302 8 -2666 8 l-661 1 -7 1038
c-3 570 -9 1841 -12 2825 l-7 1787 3850 0 3850 0 6 -437 c4 -240 7 -664 7
-942 0 -278 3 -921 7 -1428 l6 -923 109 0 108 0 0 1975 c0 1571 -3 1977 -12
1980 -24 9 -6122 20 -7023 14 -852 -7 -1095 -15 -1119 -39 -6 -6 -14 -66 -18
-133 -4 -67 -10 -1152 -14 -2412 -6 -2274 3 -3471 25 -3514 7 -12 26 -21 53
-25 184 -27 1245 -41 3861 -52 l1697 -6 0 -124 0 -124 -382 0 c-211 0 -1544
-5 -2962 -10 -1418 -6 -2581 -9 -2583 -6 -4 4 -22 3598 -23 4502 l0 472 -29 5
c-16 4 -71 9 -121 13 l-92 7 5 -2404 c5 -2422 8 -2598 42 -2714 26 -91 76
-117 257 -134 181 -18 1030 -29 2493 -35 748 -4 1822 -9 2387 -12 l1027 -6 3
-322 c4 -384 2 -376 97 -376 66 0 151 24 272 75 109 47 151 46 279 -6 155 -62
240 -76 323 -53 45 13 58 108 73 505 l6 176 832 6 c457 4 864 12 904 17 98 13
142 34 239 116 l83 69 0 3460 0 3460 -98 98 -97 97 -2975 -2 c-1636 -1 -3513
-5 -4170 -9z m4767 -3949 c54 -24 125 -72 183 -123 25 -22 74 -54 110 -71 62
-29 72 -30 221 -34 l157 -4 4 -157 c3 -145 5 -160 31 -215 15 -33 52 -89 82
-126 133 -163 173 -290 91 -290 -26 0 -74 -48 -109 -110 -45 -78 -86 -219
-103 -356 -9 -71 -18 -130 -19 -132 -2 -2 -65 -10 -141 -17 -252 -26 -304 -48
-444 -181 l-95 -92 -85 81 c-148 141 -210 167 -449 191 -79 8 -146 17 -148 20
-3 3 -12 65 -19 138 -24 234 -51 306 -156 423 -79 88 -101 122 -94 148 3 12
42 65 87 117 115 134 137 190 163 413 8 65 16 120 18 122 2 2 60 11 129 19 69
9 161 27 205 42 149 48 264 124 264 173 0 44 49 53 117 21z m-147 -2146 c73
-18 211 -18 285 1 42 11 61 13 69 5 16 -16 20 -673 7 -1090 -13 -407 -19 -490
-36 -490 -6 0 -34 15 -61 33 -66 43 -141 44 -267 3 -59 -19 -92 -25 -98 -19
-25 25 -30 180 -27 840 3 738 4 753 51 738 12 -4 47 -13 77 -21z"/>
<path d="M10520 7584 c-78 -21 -136 -58 -210 -134 -120 -123 -174 -244 -174
-385 1 -136 57 -267 161 -371 180 -180 436 -203 638 -59 117 83 207 217 242
358 14 59 15 80 5 145 -48 302 -375 523 -662 446z m258 -283 c49 -25 107 -87
127 -133 46 -112 -21 -255 -151 -319 -56 -28 -71 -31 -122 -26 -70 6 -129 34
-167 79 -41 49 -55 90 -55 163 0 108 54 190 155 236 55 26 163 25 213 0z"/>
<path d="M6655 10273 c-445 -8 -910 -31 -1013 -49 -41 -8 -64 -49 -60 -107 3
-39 6 -43 41 -55 103 -33 353 -37 2427 -37 2364 0 2449 3 2466 71 9 35 -3 89
-25 108 -36 33 -273 50 -926 66 -331 8 -2508 11 -2910 3z"/>
<path d="M6860 9439 c-747 -12 -1192 -34 -1241 -60 -24 -13 -39 -49 -39 -95 0
-88 -61 -86 2725 -91 2721 -5 3226 2 3282 48 22 19 16 94 -9 123 -20 23 -35
27 -128 36 -167 15 -590 29 -1220 40 -660 11 -2680 11 -3370 -1z"/>
<path d="M6340 8603 c-326 -9 -658 -32 -712 -49 -37 -11 -63 -105 -40 -142 32
-49 232 -56 1757 -55 1364 0 1619 5 1711 35 l39 13 0 58 c-1 66 -14 84 -71 97
-65 14 -294 30 -594 40 -245 8 -1814 11 -2090 3z"/>
<path d="M5947 7718 c-23 -17 -38 -99 -82 -428 -36 -271 -95 -584 -140 -745
-101 -363 -103 -385 -41 -442 98 -90 198 14 280 292 38 128 77 235 85 235 13
0 36 -32 67 -90 35 -67 148 -188 215 -231 63 -40 98 -37 234 21 123 53 176 60
232 32 87 -45 267 -67 691 -83 310 -12 487 -4 559 26 53 22 103 73 103 104 0
38 -36 90 -73 106 -57 24 -184 35 -557 50 -390 16 -523 28 -575 49 -22 10 -42
31 -60 63 -72 126 -111 163 -173 163 -43 0 -107 -59 -147 -136 -41 -80 -87
-124 -128 -124 -110 0 -140 98 -266 869 -45 274 -45 273 -143 279 -42 2 -69
-1 -81 -10z"/>
</g>
</svg>
